Coordinates
version=1
nRows=17
nColumns=24
inDegrees=yes

Units are S.I. units (second, meters, Newtons, ...)
Angles are in degrees.

endheader
time	pelvis_tilt	pelvis_list	pelvis_rotation	pelvis_tx	pelvis_ty	pelvis_tz	hip_flexion_r	hip_adduction_r	hip_rotation_r	knee_angle_r	ankle_angle_r	subtalar_angle_r	mtp_angle_r	hip_flexion_l	hip_adduction_l	hip_rotation_l	knee_angle_l	ankle_angle_l	subtalar_angle_l	mtp_angle_l	lumbar_extension	lumbar_bending	lumbar_rotation
      4.72000000	      3.31250644	     -0.03060561	     10.04442851	      0.16574490	      1.06216443	     -0.26751857	      0.82702967	      5.50071931	    -13.14516488	    -11.18972515	      9.47671839	    -18.87768196	      0.00000000	     14.23216178	      0.11827518	      3.98442592	    -61.56985941	    -14.48375023	    -44.64480426	      0.00000000	    -13.57180038	      1.26246264	   -183.94671717
      4.73000000	      3.17933806	      0.24785806	      9.79115501	      0.17771446	      1.06376517	     -0.26735429	     -0.01991055	      5.37882975	    -13.28299958	    -10.65353567	      9.21323939	    -18.87187582	      0.00000000	     15.32989940	      0.59786242	      3.72540839	    -60.16244373	    -12.47626563	    -43.31550406	      0.00000000	    -13.66957154	      0.84739958	   -183.21430488
      4.74000000	      3.04163456	      0.43335077	      9.52170890	      0.18972572	      1.06517524	     -0.26730486	     -0.83708599	      5.33056783	    -13.44285697	    -10.14140422	      8.95189590	    -18.76562458	      0.00000000	     16.35700104	      0.95519339	      3.43680640	    -58.48175830	    -10.38368737	    -41.53807888	      0.00000000	    -13.70950354	      0.55729933	   -182.51785425
      4.75000000	      2.89770509	      0.54388654	      9.23409391	      0.20178868	      1.06638260	     -0.26734609	     -1.61950709	      5.33703500	    -13.58060347	     -9.67180098	      8.70554379	    -18.58679977	      0.00000000	     17.30271803	      1.20587216	      3.11723222	    -56.52526643	     -8.23453906	    -39.38316680	      0.00000000	    -13.69536048	      0.36294815	   -181.85631069
      4.76000000	      2.73850324	      0.59351739	      8.92406296	      0.21390597	      1.06737244	     -0.26747995	     -2.35348532	      5.37868926	    -13.67820580	     -9.25829332	      8.46643487	    -18.35755995	      0.00000000	     18.16573255	      1.36423123	      2.76178753	    -54.29099246	     -6.09703100	    -36.93763355	      0.00000000	    -13.62342356	      0.25500762	   -181.22635215
      4.77000000	      2.56654134	      0.60264128	      8.58016603	      0.22610623	      1.06815000	     -0.26765385	     -3.04316179	      5.43648936	    -13.70076464	     -8.91102228	      8.25848614	    -18.09508317	      0.00000000	     18.92384602	      1.44364593	      2.35934226	    -51.76646188	     -4.02681802	    -34.28608677	      0.00000000	    -13.49721366	      0.19305653	   -180.62433447
      4.78000000	      2.37328703	      0.58130216	      8.20263739	      0.23837149	      1.06870531	     -0.26787940	     -3.67582372	      5.49608165	    -13.65414201	     -8.63656150	      8.08037169	    -17.81722391	      0.00000000	     19.57409486	      1.45964307	      1.91534575	    -48.94467482	     -2.10432873	    -31.53144017	      0.00000000	    -13.31932627	      0.17583834	   -180.03710013
      4.79000000	      2.16189935	      0.52770327	      7.78560263	      0.25072837	      1.06903756	     -0.26812856	     -4.25955362	      5.56150455	    -13.53939861	     -8.42846118	      7.92680663	    -17.52905581	      0.00000000	     20.09884325	      1.40950382	      1.43631273	    -45.81926160	     -0.37139324	    -28.74829364	      0.00000000	    -13.09151132	      0.19726838	   -179.46822883
      4.80000000	      1.93517883	      0.44242729	      7.32727480	      0.26318651	      1.06914365	     -0.26839651	     -4.80274809	      5.63444115	    -13.35930999	     -8.27818843	      7.80068121	    -17.23962794	      0.00000000	     20.48200802	      1.29937748	      0.93837745	    -42.38473683	      1.11124517	    -26.04425512	      0.00000000	    -12.82084207	      0.25878585	   -178.90974129
      4.81000000	      1.71252538	      0.30904834	      6.82509410	      0.27576848	      1.06902750	     -0.26867429	     -5.33631171	      5.73689958	    -13.12106788	     -8.16452756	      7.69144397	    -16.93765000	      0.00000000	     20.69697787	      1.11137844	      0.43216214	    -38.65035282	      2.30889992	    -23.50941874	      0.00000000	    -12.53006325	      0.38005081	   -178.36182287
      4.82000000	      1.50174034	      0.11142604	      6.28649774	      0.28847928	      1.06866886	     -0.26898199	     -5.86893019	      5.88625090	    -12.85273522	     -8.08601588	      7.59611141	    -16.63836919	      0.00000000	     20.74195433	      0.84240778	     -0.04167045	    -34.64928122	      3.20604826	    -21.22552114	      0.00000000	    -12.23044435	      0.58750038	   -177.80323963
      4.83000000	      1.33103503	     -0.15941404	      5.70425454	      0.30136086	      1.06807744	     -0.26929758	     -6.45280217	      6.09875368	    -12.53198146	     -8.00725762	      7.52095386	    -16.32268957	      0.00000000	     20.59572975	      0.47647455	     -0.48862946	    -30.42512279	      3.80916075	    -19.26979671	      0.00000000	    -11.95564601	      0.88926834	   -177.23557588
      4.84000000	      1.20854972	     -0.50651055	      5.08754387	      0.31440842	      1.06724276	     -0.26962846	     -7.09108012	      6.37534543	    -12.17789993	     -7.94455213	      7.45653555	    -16.00272658	      0.00000000	     20.26907314	      0.02145767	     -0.86679258	    -26.04016131	      4.11566076	    -17.72201592	      0.00000000	    -11.72360752	      1.28676712	   -176.64939470
      4.85000000	      1.12770949	     -0.92956633	      4.42487271	      0.32765484	      1.06614356	     -0.26996234	     -7.79257122	      6.71570464	    -11.73088777	     -7.87995075	      7.44878399	    -15.67171967	      0.00000000	     19.79250067	     -0.52202825	     -1.15801869	    -21.57361594	      4.11120889	    -16.69777824	      0.00000000	    -11.52425396	      1.77720017	   -176.04277455
      4.86000000	      1.13017670	     -1.41544919	      3.74116008	      0.34107251	      1.06484179	     -0.27030929	     -8.58665030	      7.10242640	    -11.28576631	     -7.84171565	      7.40531493	    -15.33902276	      0.00000000	     19.16348454	     -1.14713094	     -1.37593144	    -17.13500089	      3.97256399	    -16.00567926	      0.00000000	    -11.42549060	      2.34420051	   -175.42163446
      4.87000000	      1.23087877	     -1.91406342	      3.03276543	      0.35467960	      1.06338421	     -0.27067073	     -9.49660372	      7.48210059	    -10.77640328	     -7.83142472	      7.39583324	    -15.02607656	      0.00000000	     18.36868553	     -1.79978103	     -1.49148139	    -12.78466491	      3.67702396	    -15.70971914	      0.00000000	    -11.44711446	      2.92660180	   -174.78227936
      4.88000000	      1.40870094	     -2.44324640	      2.35737597	      0.36842226	      1.06174549	     -0.27112211	    -10.48256410	      7.87665335	    -10.23844506	     -7.86864795	      7.33437791	    -14.84063756	      0.00000000	     17.45492808	     -2.46951968	     -1.23253431	     -8.60679011	      3.10114432	    -16.09584703	      0.00000000	    -11.57137606	      3.54835435	   -174.16273317
